<?xml version="1.0" encoding="utf-8"?>
<!-- Generator: Adobe Illustrator 23.0.3, SVG Export Plug-In . SVG Version: 6.00 Build 0)  -->
<svg version="1.1" id="Layer_1" xmlns="http://www.w3.org/2000/svg" xmlns:xlink="http://www.w3.org/1999/xlink" x="0px" y="0px"
	 viewBox="0 0 661 108.3" style="enable-background:new 0 0 661 108.3;" xml:space="preserve">
<style type="text/css">
	.st0{fill-rule:evenodd;clip-rule:evenodd;fill:url(#SVGID_1_);}
	.st1{fill-rule:evenodd;clip-rule:evenodd;fill:url(#SVGID_2_);}
	.st2{fill-rule:evenodd;clip-rule:evenodd;fill:url(#SVGID_3_);}
	.st3{fill-rule:evenodd;clip-rule:evenodd;fill:url(#SVGID_4_);}
	.st4{fill:#FFFFFF;}
	.st5{fill:none;}
</style>
<g>
	<g>
		
			<linearGradient id="SVGID_1_" gradientUnits="userSpaceOnUse" x1="42.697" y1="-600.1785" x2="173.387" y2="-824.6484" gradientTransform="matrix(1 0 0 -1 0 -572)">
			<stop  offset="0" style="stop-color:#345D83"/>
			<stop  offset="1" style="stop-color:#00DDFF"/>
		</linearGradient>
		<path class="st0" d="M90.4,107.7L60.8,10.5L31.6-0.2l29,107.9C60.6,107.7,90.4,107.7,90.4,107.7z"/>
		
			<linearGradient id="SVGID_2_" gradientUnits="userSpaceOnUse" x1="108.5328" y1="-612.5917" x2="176.8628" y2="-786.8317" gradientTransform="matrix(1 0 0 -1 0 -572)">
			<stop  offset="0" style="stop-color:#345D83"/>
			<stop  offset="1" style="stop-color:#00DDFF"/>
		</linearGradient>
		<path class="st1" d="M120.3,32.8l29.5,74.9h-29.9L91.3,22.2C91.3,22.2,120.4,32.8,120.3,32.8z"/>
		
			<linearGradient id="SVGID_3_" gradientUnits="userSpaceOnUse" x1="44.2408" y1="-588.301" x2="28.7108" y2="-631.571" gradientTransform="matrix(1 0 0 -1 0 -572)">
			<stop  offset="0" style="stop-color:#00CACF"/>
			<stop  offset="1" style="stop-color:#28A6E4"/>
		</linearGradient>
		<path class="st2" d="M31.6-0.2L0,107.7h30l30.8-97.2L31.6-0.2z"/>
		
			<linearGradient id="SVGID_4_" gradientUnits="userSpaceOnUse" x1="102.3645" y1="-609.2001" x2="86.9245" y2="-652.2101" gradientTransform="matrix(1 0 0 -1 0 -572)">
			<stop  offset="0" style="stop-color:#00CACF"/>
			<stop  offset="1" style="stop-color:#28A6E4"/>
		</linearGradient>
		<path class="st3" d="M90.4,107.7l30-74.9L91.3,22.2l-30.7,85.5H90.4z"/>
	</g>
</g>
<g>
	<g>
		<path class="st4" d="M81.3-281h14.1l9.3,21.4c1.1,2.8,2.1,5.9,3.3,8.9h0.4c1.1-3,2.1-6,3.3-8.9l9-21.4h14.1v48.1h-12v-17.7
			c0-4.7,1-11.7,1.6-16.3H124l-4.7,11.4l-8.1,18.4H104l-8.1-18.4l-4.5-11.4h-0.3c0.6,4.7,1.6,11.7,1.6,16.3v17.7H81.1V-281H81.3z"/>
		<path class="st4" d="M147.7-255.2V-281h12.9v26.9c0,9.4,3.5,12.7,9.9,12.7s10.1-3.3,10.1-12.7V-281H193v25.8
			c0,16.2-7.8,23.2-22.5,23.2S147.7-239,147.7-255.2z"/>
		<path class="st4" d="M217.3-271.9h-15.7v-9.1h44.3v9.1h-15.7v39h-12.9L217.3-271.9L217.3-271.9z"/>
		<path class="st4" d="M254.5-255.2V-281h12.9v26.9c0,9.4,3.5,12.7,9.9,12.7s10.1-3.3,10.1-12.7V-281h12.4v25.8
			c0,16.2-7.8,23.2-22.5,23.2S254.5-239,254.5-255.2z"/>
		<path class="st4" d="M323.6-281H339l17.9,48.1h-13.6l-7.5-24.4c-1.6-4.8-3.1-10.5-4.6-15.5h-0.4c-1.4,5.1-2.9,10.7-4.5,15.5
			l-7.5,24.4h-13.2L323.6-281z M317.5-252.8h27.4v8.5h-27.4V-252.8z"/>
		<path class="st4" d="M363.1-281H376v39h22.5v9.1h-35.4V-281z"/>
		<path class="st4" d="M408.4-281h19.5c11.8,0,21,2.7,21,11.9c0,4.3-2.9,8.9-7.5,10.4v0.3c5.8,1.3,10.3,4.9,10.3,11.3
			c0,9.8-9.8,14.2-22.2,14.2h-21.1L408.4-281L408.4-281z M427.3-261.7c6.3,0,9-2.2,9-5.7c0-3.7-2.9-5.1-8.9-5.1h-6.1v10.9
			L427.3-261.7L427.3-261.7z M428.5-241.3c7,0,10.7-2.1,10.7-6.5c0-4.2-3.6-5.9-10.7-5.9h-7.2v12.4H428.5z"/>
		<path class="st4" d="M461.3-281h12.9v48.1h-12.9V-281z"/>
		<path class="st4" d="M498.8-271.9h-15.7v-9.1h44.3v9.1h-15.7v39h-12.9L498.8-271.9L498.8-271.9z"/>
		<path class="st4" d="M532.6-239l7.4-7.5c4.1,3,9.3,5,14,5c5.4,0,8-1.8,8-4.6c0-3-3.2-4-8.2-5.7l-7.4-2.7
			c-5.9-2-11.5-6.1-11.5-13.1c0-8,8.4-14.3,20.3-14.3c6.6,0,13.4,2.2,18.3,6.3l-6.5,6.9c-3.8-2.4-7.3-3.8-11.8-3.8
			c-4.4,0-7.3,1.6-7.3,4.3c0,3,3.7,4,8.7,5.7l7.3,2.5c7,2.4,11.3,6.3,11.3,13.1c0,8-7.9,14.9-21.5,14.9
			C546.3-232,538.4-234.4,532.6-239z"/>
	</g>
</g>
<g>
	<g>
		<path class="st4" d="M159.3-127.3h9.7l8.6,21.8c1.1,2.8,2,5.8,3.1,8.8h0.3c1.1-2.9,2-5.9,3.1-8.8l8.4-21.8h9.7v44.6h-7.9v-20.4
			c0-4.1,0.7-10.1,1.1-14.2h-0.3l-3.9,10.4l-8,20.1h-5.1l-8-20.1l-3.8-10.4H166c0.4,4.1,1.1,10.1,1.1,14.2v20.4h-7.7v-44.6H159.3z"
			/>
		<path class="st4" d="M214.3-102.2v-25.1h8.6v25.7c0,9.7,3.9,12.9,9.8,12.9c5.9,0,10-3.2,10-12.9v-25.7h8.3v25.1
			c0,14.7-7.1,20.4-18.3,20.4C221.5-81.8,214.3-87.6,214.3-102.2z"/>
		<path class="st4" d="M272.9-120.5h-14v-6.7h36.6v6.7h-14v38h-8.6V-120.5z"/>
		<path class="st4" d="M303.3-102.2v-25.1h8.6v25.7c0,9.7,3.9,12.9,9.8,12.9s10-3.2,10-12.9v-25.7h8.3v25.1
			c0,14.7-7.1,20.4-18.3,20.4S303.3-87.6,303.3-102.2z"/>
		<path class="st4" d="M361.6-127.3h10.1l15.8,44.6h-9.1l-7.4-23.8c-1.5-4.7-3-9.8-4.4-14.7h-0.3c-1.3,4.9-2.8,10-4.3,14.7
			l-7.4,23.8h-8.8L361.6-127.3z M355.1-100.9h22.8v6.2h-22.8V-100.9z"/>
		<path class="st4" d="M393.5-127.3h8.6v38h20.1v6.7h-28.7V-127.3z"/>
		<path class="st4" d="M430.8-127.3h15.5c10,0,17.3,2.8,17.3,11c0,4.2-2.5,8.3-6.7,9.7v0.3c5.4,1.1,9.3,4.6,9.3,10.6
			c0,8.9-7.9,13.1-18.6,13.1h-16.7L430.8-127.3L430.8-127.3z M445.4-108.8c6.8,0,9.6-2.4,9.6-6.3c0-4.3-3.2-6-9.5-6h-6.3v12.3H445.4
			z M446.5-88.8c7.1,0,11.1-2.3,11.1-7.4c0-4.7-3.9-6.7-11.1-6.7h-7.3v14.1H446.5z"/>
		<path class="st4" d="M474.9-127.3h8.6v44.6h-8.6V-127.3z"/>
		<path class="st4" d="M505.6-120.5h-14v-6.7h36.6v6.7h-14v38h-8.6V-120.5z"/>
		<path class="st4" d="M533-88.3l5-5.4c3.5,3,8.1,5.1,12.6,5.1c5.5,0,8.4-2.3,8.4-5.8c0-3.7-3.1-4.8-7.5-6.6l-6.6-2.6
			c-4.8-1.8-9.8-5.3-9.8-11.8c0-7.1,6.8-12.6,16.3-12.6c5.7,0,11.1,2.2,14.9,5.7l-4.4,5c-3.1-2.4-6.4-3.8-10.5-3.8
			c-4.6,0-7.6,2-7.6,5.2c0,3.5,3.7,4.8,7.7,6.3l6.5,2.5c5.8,2.2,9.8,5.6,9.8,12c0,7.2-6.5,13.3-17.4,13.3
			C544-81.8,537.6-84.2,533-88.3z"/>
	</g>
</g>
<polygon class="st5" points="410,22.2 561,22.2 561,22.2 "/>
<rect x="410" y="-237" class="st5" width="28" height="10"/>
<g>
	<g>
		<path class="st4" d="M157,58.9h11l9.7,23c1.2,3,2.3,6.2,3.5,9.2h0.3c1.2-3.1,2.2-6.3,3.5-9.2l9.5-23h11V106h-8.9V84.5
			c0-4.3,0.8-10.6,1.2-15h-0.3L193,80.4l-9,21.2h-5.8l-9.1-21.2l-4.4-10.9h-0.3c0.5,4.4,1.2,10.6,1.2,15V106H157V58.9z"/>
		<path class="st4" d="M230.2,58.9h11.4l17.9,47.1h-10.3l-8.3-25.1c-1.7-5-3.4-10.4-5-15.5h-0.3c-1.5,5.2-3.1,10.5-4.9,15.5
			l-8.4,25.1h-9.9L230.2,58.9z M222.8,86.7h25.8v6.6h-25.8V86.7z"/>
		<path class="st4" d="M275.9,81.7l-14.6-22.8h10.8l6.1,10.5c1.3,2.2,2.5,4.3,4.1,7.2h0.3c1.4-2.9,2.5-5,3.7-7.2l5.8-10.5h10.3
			l-14.6,23.2l15.6,23.9h-10.8L286,94.9c-1.4-2.4-2.8-4.8-4.4-7.7h-0.3c-1.4,2.9-2.7,5.3-4.1,7.7l-6.5,11.1h-10.3L275.9,81.7z"/>
		<path class="st4" d="M321.2,81.7l-14.6-22.8h10.8l6.1,10.5c1.3,2.2,2.5,4.3,4.1,7.2h0.3c1.4-2.9,2.5-5,3.7-7.2l5.8-10.5h10.3
			l-14.6,23.2l15.6,23.9H338l-6.7-11.1c-1.4-2.4-2.8-4.8-4.4-7.7h-0.3c-1.4,2.9-2.7,5.3-4.1,7.7L316,106h-10.3L321.2,81.7z"/>
		<path class="st4" d="M356.9,58.9h9.7V106h-9.7V58.9z"/>
		<path class="st4" d="M380.5,58.9h17.5c11.3,0,19.6,3,19.6,11.6c0,4.4-2.8,8.8-7.6,10.2V81c6.1,1.2,10.5,4.8,10.5,11.2
			c0,9.4-9,13.8-21.1,13.8h-18.9V58.9z M397.2,78.3c7.6,0,10.9-2.6,10.9-6.7c0-4.6-3.6-6.3-10.7-6.3h-7.1v12.9H397.2z M398.5,99.5
			c8,0,12.5-2.5,12.5-7.8c0-5-4.4-7.1-12.5-7.1h-8.2v14.9H398.5z"/>
		<path class="st4" d="M430.6,58.9h9.7V106h-9.7V58.9z"/>
		<path class="st4" d="M465.3,65.9h-15.8v-7h41.4v7H475V106h-9.7V65.9z"/>
		<path class="st4" d="M496.2,100l5.7-5.7c3.9,3.2,9.2,5.4,14.3,5.4c6.2,0,9.6-2.4,9.6-6.1c0-3.9-3.5-5.1-8.5-6.9l-7.5-2.8
			c-5.4-1.9-11.1-5.6-11.1-12.5c0-7.5,7.7-13.3,18.4-13.3c6.4,0,12.6,2.3,16.9,6l-5,5.3c-3.5-2.5-7.2-4-11.9-4
			c-5.2,0-8.6,2.1-8.6,5.5c0,3.7,4.2,5.1,8.7,6.7l7.4,2.7c6.5,2.3,11.1,5.9,11.1,12.7c0,7.6-7.4,14-19.7,14
			C508.6,106.9,501.4,104.4,496.2,100z"/>
	</g>
</g>
<rect x="230" y="-78" class="st5" width="249" height="1"/>
</svg>
